<?xml version="1.0" ?>
<svg data-name="Layer 1" id="Layer_1" viewBox="0 0 32 32" xmlns="http://www.w3.org/2000/svg" width="25" height="25">
<title/><path d="M6,3V29H26V3H6ZM25,4V8H7V4H25ZM7,28V9H25V28H7Z"/>
<circle cx="10" cy="6" r="1"/><circle cx="14" cy="6" r="1"/><circle cx="18" cy="6" r="1"/><circle cx="22" cy="6" r="1"/>
<path d="M16,11a7,7,0,1,0,7,7A7,7,0,0,0,16,11Zm0,13a6,6,0,1,1,6-6A6,6,0,0,1,16,24Z"/><path d="M16,14a4,4,0,1,0,4,4A4,4,0,0,0,16,14Zm0,7a3,3,0,1,1,3-3A3,3,0,0,1,16,21Z"/></svg>